<mxfile host="app.diagrams.net" agent="Mozilla/5.0 (X11; Linux x86_64) AppleWebKit/537.36 (KHTML, like Gecko) Chrome/134.0.0.0 Safari/537.36" version="26.1.0">
  <diagram name="Página-1" id="m742Hl7anWBMxf7Msho_">
    <mxGraphModel dx="2074" dy="1146" grid="1" gridSize="10" guides="1" tooltips="1" connect="1" arrows="1" fold="1" page="1" pageScale="1" pageWidth="827" pageHeight="1169" math="0" shadow="0">
      <root>
        <mxCell id="0" />
        <mxCell id="1" parent="0" />
        <mxCell id="4ntPDwli7KKJA4_EWOXy-1" value="Compañia productora" style="swimlane;html=1;childLayout=stackLayout;resizeParent=1;resizeParentMax=0;startSize=20;whiteSpace=wrap;" parent="1" vertex="1">
          <mxGeometry x="330" y="40" width="1570" height="1230" as="geometry" />
        </mxCell>
        <mxCell id="4ntPDwli7KKJA4_EWOXy-2" value="Servicio de Produccion" style="swimlane;html=1;startSize=20;" parent="4ntPDwli7KKJA4_EWOXy-1" vertex="1">
          <mxGeometry y="20" width="230" height="1210" as="geometry" />
        </mxCell>
        <mxCell id="4ntPDwli7KKJA4_EWOXy-21" value="Recibir propuesta" style="points=[[0.145,0.145,0],[0.5,0,0],[0.855,0.145,0],[1,0.5,0],[0.855,0.855,0],[0.5,1,0],[0.145,0.855,0],[0,0.5,0]];shape=mxgraph.bpmn.event;html=1;verticalLabelPosition=bottom;labelBackgroundColor=#ffffff;verticalAlign=top;align=center;perimeter=ellipsePerimeter;outlineConnect=0;aspect=fixed;outline=standard;symbol=message;" parent="4ntPDwli7KKJA4_EWOXy-2" vertex="1">
          <mxGeometry x="100" y="50" width="50" height="50" as="geometry" />
        </mxCell>
        <mxCell id="4ntPDwli7KKJA4_EWOXy-30" style="edgeStyle=orthogonalEdgeStyle;rounded=0;orthogonalLoop=1;jettySize=auto;html=1;exitX=0.5;exitY=1;exitDx=0;exitDy=0;exitPerimeter=0;" parent="4ntPDwli7KKJA4_EWOXy-2" source="4ntPDwli7KKJA4_EWOXy-24" edge="1">
          <mxGeometry relative="1" as="geometry">
            <mxPoint x="125" y="210" as="targetPoint" />
          </mxGeometry>
        </mxCell>
        <mxCell id="AojAtGbszMKB-Ow7NaBF-47" style="edgeStyle=orthogonalEdgeStyle;rounded=0;orthogonalLoop=1;jettySize=auto;html=1;" edge="1" parent="4ntPDwli7KKJA4_EWOXy-2" source="4ntPDwli7KKJA4_EWOXy-24" target="4ntPDwli7KKJA4_EWOXy-139">
          <mxGeometry relative="1" as="geometry" />
        </mxCell>
        <mxCell id="4ntPDwli7KKJA4_EWOXy-24" value="Reenviar propuesta al director" style="points=[[0.145,0.145,0],[0.5,0,0],[0.855,0.145,0],[1,0.5,0],[0.855,0.855,0],[0.5,1,0],[0.145,0.855,0],[0,0.5,0]];shape=mxgraph.bpmn.event;html=1;verticalLabelPosition=bottom;labelBackgroundColor=#ffffff;verticalAlign=top;align=center;perimeter=ellipsePerimeter;outlineConnect=0;aspect=fixed;outline=throwing;symbol=message;" parent="4ntPDwli7KKJA4_EWOXy-2" vertex="1">
          <mxGeometry x="100" y="130" width="50" height="50" as="geometry" />
        </mxCell>
        <mxCell id="4ntPDwli7KKJA4_EWOXy-25" style="edgeStyle=orthogonalEdgeStyle;rounded=0;orthogonalLoop=1;jettySize=auto;html=1;exitX=0.5;exitY=1;exitDx=0;exitDy=0;exitPerimeter=0;entryX=0.5;entryY=0;entryDx=0;entryDy=0;entryPerimeter=0;" parent="4ntPDwli7KKJA4_EWOXy-2" source="4ntPDwli7KKJA4_EWOXy-21" target="4ntPDwli7KKJA4_EWOXy-24" edge="1">
          <mxGeometry relative="1" as="geometry" />
        </mxCell>
        <mxCell id="AojAtGbszMKB-Ow7NaBF-49" style="edgeStyle=orthogonalEdgeStyle;rounded=0;orthogonalLoop=1;jettySize=auto;html=1;" edge="1" parent="4ntPDwli7KKJA4_EWOXy-2" source="4ntPDwli7KKJA4_EWOXy-139" target="AojAtGbszMKB-Ow7NaBF-6">
          <mxGeometry relative="1" as="geometry" />
        </mxCell>
        <mxCell id="4ntPDwli7KKJA4_EWOXy-139" value="Recibir respuesta del director" style="points=[[0.145,0.145,0],[0.5,0,0],[0.855,0.145,0],[1,0.5,0],[0.855,0.855,0],[0.5,1,0],[0.145,0.855,0],[0,0.5,0]];shape=mxgraph.bpmn.event;html=1;verticalLabelPosition=bottom;labelBackgroundColor=#ffffff;verticalAlign=top;align=center;perimeter=ellipsePerimeter;outlineConnect=0;aspect=fixed;outline=catching;symbol=message;" parent="4ntPDwli7KKJA4_EWOXy-2" vertex="1">
          <mxGeometry x="100" y="270" width="50" height="50" as="geometry" />
        </mxCell>
        <mxCell id="AojAtGbszMKB-Ow7NaBF-6" value="Comunicar resultados&lt;div&gt;&lt;br&gt;&lt;/div&gt;" style="points=[[0.145,0.145,0],[0.5,0,0],[0.855,0.145,0],[1,0.5,0],[0.855,0.855,0],[0.5,1,0],[0.145,0.855,0],[0,0.5,0]];shape=mxgraph.bpmn.event;html=1;verticalLabelPosition=bottom;labelBackgroundColor=#ffffff;verticalAlign=top;align=center;perimeter=ellipsePerimeter;outlineConnect=0;aspect=fixed;outline=end;symbol=message;" vertex="1" parent="4ntPDwli7KKJA4_EWOXy-2">
          <mxGeometry x="100" y="440" width="50" height="50" as="geometry" />
        </mxCell>
        <mxCell id="4ntPDwli7KKJA4_EWOXy-3" value="Director" style="swimlane;html=1;startSize=20;" parent="4ntPDwli7KKJA4_EWOXy-1" vertex="1">
          <mxGeometry x="230" y="20" width="360" height="1210" as="geometry" />
        </mxCell>
        <mxCell id="4ntPDwli7KKJA4_EWOXy-26" value="" style="points=[[0.145,0.145,0],[0.5,0,0],[0.855,0.145,0],[1,0.5,0],[0.855,0.855,0],[0.5,1,0],[0.145,0.855,0],[0,0.5,0]];shape=mxgraph.bpmn.event;html=1;verticalLabelPosition=bottom;labelBackgroundColor=#ffffff;verticalAlign=top;align=center;perimeter=ellipsePerimeter;outlineConnect=0;aspect=fixed;outline=standard;symbol=message;" parent="4ntPDwli7KKJA4_EWOXy-3" vertex="1">
          <mxGeometry x="147" y="50" width="50" height="50" as="geometry" />
        </mxCell>
        <mxCell id="4ntPDwli7KKJA4_EWOXy-34" value="" style="edgeStyle=orthogonalEdgeStyle;rounded=0;orthogonalLoop=1;jettySize=auto;html=1;" parent="4ntPDwli7KKJA4_EWOXy-3" source="4ntPDwli7KKJA4_EWOXy-31" target="4ntPDwli7KKJA4_EWOXy-33" edge="1">
          <mxGeometry relative="1" as="geometry" />
        </mxCell>
        <mxCell id="4ntPDwli7KKJA4_EWOXy-31" value="Leer documento" style="points=[[0.25,0,0],[0.5,0,0],[0.75,0,0],[1,0.25,0],[1,0.5,0],[1,0.75,0],[0.75,1,0],[0.5,1,0],[0.25,1,0],[0,0.75,0],[0,0.5,0],[0,0.25,0]];shape=mxgraph.bpmn.task2;whiteSpace=wrap;rectStyle=rounded;size=10;html=1;container=1;expand=0;collapsible=0;taskMarker=abstract;" parent="4ntPDwli7KKJA4_EWOXy-3" vertex="1">
          <mxGeometry x="112" y="130" width="120" height="40" as="geometry" />
        </mxCell>
        <mxCell id="4ntPDwli7KKJA4_EWOXy-32" style="edgeStyle=orthogonalEdgeStyle;rounded=0;orthogonalLoop=1;jettySize=auto;html=1;exitX=0.5;exitY=1;exitDx=0;exitDy=0;exitPerimeter=0;entryX=0.5;entryY=0;entryDx=0;entryDy=0;entryPerimeter=0;" parent="4ntPDwli7KKJA4_EWOXy-3" source="4ntPDwli7KKJA4_EWOXy-26" target="4ntPDwli7KKJA4_EWOXy-31" edge="1">
          <mxGeometry relative="1" as="geometry" />
        </mxCell>
        <mxCell id="4ntPDwli7KKJA4_EWOXy-41" value="" style="edgeStyle=orthogonalEdgeStyle;rounded=0;orthogonalLoop=1;jettySize=auto;html=1;" parent="4ntPDwli7KKJA4_EWOXy-3" source="4ntPDwli7KKJA4_EWOXy-33" target="4ntPDwli7KKJA4_EWOXy-40" edge="1">
          <mxGeometry relative="1" as="geometry">
            <Array as="points">
              <mxPoint x="60" y="235" />
            </Array>
          </mxGeometry>
        </mxCell>
        <mxCell id="4ntPDwli7KKJA4_EWOXy-84" value="No" style="edgeLabel;html=1;align=center;verticalAlign=middle;resizable=0;points=[];" parent="4ntPDwli7KKJA4_EWOXy-41" vertex="1" connectable="0">
          <mxGeometry x="-0.2044" y="1" relative="1" as="geometry">
            <mxPoint as="offset" />
          </mxGeometry>
        </mxCell>
        <mxCell id="4ntPDwli7KKJA4_EWOXy-33" value="Visto bueno?" style="rhombus;whiteSpace=wrap;html=1;" parent="4ntPDwli7KKJA4_EWOXy-3" vertex="1">
          <mxGeometry x="132" y="200" width="68" height="70" as="geometry" />
        </mxCell>
        <mxCell id="4ntPDwli7KKJA4_EWOXy-40" value="" style="rhombus;whiteSpace=wrap;html=1;" parent="4ntPDwli7KKJA4_EWOXy-3" vertex="1">
          <mxGeometry x="32" y="260" width="58" height="60" as="geometry" />
        </mxCell>
        <mxCell id="4ntPDwli7KKJA4_EWOXy-43" style="edgeStyle=orthogonalEdgeStyle;rounded=0;orthogonalLoop=1;jettySize=auto;html=1;exitX=0.5;exitY=1;exitDx=0;exitDy=0;entryX=0.5;entryY=0;entryDx=0;entryDy=0;entryPerimeter=0;" parent="4ntPDwli7KKJA4_EWOXy-3" source="4ntPDwli7KKJA4_EWOXy-40" target="AojAtGbszMKB-Ow7NaBF-8" edge="1">
          <mxGeometry relative="1" as="geometry" />
        </mxCell>
        <mxCell id="4ntPDwli7KKJA4_EWOXy-58" value="Enviar guion a guionistas" style="points=[[0.145,0.145,0],[0.5,0,0],[0.855,0.145,0],[1,0.5,0],[0.855,0.855,0],[0.5,1,0],[0.145,0.855,0],[0,0.5,0]];shape=mxgraph.bpmn.event;html=1;verticalLabelPosition=bottom;labelBackgroundColor=#ffffff;verticalAlign=top;align=center;perimeter=ellipsePerimeter;outlineConnect=0;aspect=fixed;outline=throwing;symbol=message;" parent="4ntPDwli7KKJA4_EWOXy-3" vertex="1">
          <mxGeometry x="232" y="270" width="50" height="50" as="geometry" />
        </mxCell>
        <mxCell id="4ntPDwli7KKJA4_EWOXy-59" value="Recibir respuesta de guionistas" style="points=[[0.145,0.145,0],[0.5,0,0],[0.855,0.145,0],[1,0.5,0],[0.855,0.855,0],[0.5,1,0],[0.145,0.855,0],[0,0.5,0]];shape=mxgraph.bpmn.event;html=1;verticalLabelPosition=bottom;labelBackgroundColor=#ffffff;verticalAlign=top;align=center;perimeter=ellipsePerimeter;outlineConnect=0;aspect=fixed;outline=catching;symbol=message;" parent="4ntPDwli7KKJA4_EWOXy-3" vertex="1">
          <mxGeometry x="232" y="355" width="50" height="50" as="geometry" />
        </mxCell>
        <mxCell id="4ntPDwli7KKJA4_EWOXy-60" style="edgeStyle=orthogonalEdgeStyle;rounded=0;orthogonalLoop=1;jettySize=auto;html=1;exitX=1;exitY=0.5;exitDx=0;exitDy=0;entryX=0.5;entryY=0;entryDx=0;entryDy=0;entryPerimeter=0;" parent="4ntPDwli7KKJA4_EWOXy-3" source="4ntPDwli7KKJA4_EWOXy-33" target="4ntPDwli7KKJA4_EWOXy-58" edge="1">
          <mxGeometry relative="1" as="geometry" />
        </mxCell>
        <mxCell id="4ntPDwli7KKJA4_EWOXy-85" value="Si" style="edgeLabel;html=1;align=center;verticalAlign=middle;resizable=0;points=[];" parent="4ntPDwli7KKJA4_EWOXy-60" vertex="1" connectable="0">
          <mxGeometry x="-0.2826" relative="1" as="geometry">
            <mxPoint as="offset" />
          </mxGeometry>
        </mxCell>
        <mxCell id="4ntPDwli7KKJA4_EWOXy-61" style="edgeStyle=orthogonalEdgeStyle;rounded=0;orthogonalLoop=1;jettySize=auto;html=1;exitX=0.5;exitY=1;exitDx=0;exitDy=0;exitPerimeter=0;entryX=0.5;entryY=0;entryDx=0;entryDy=0;entryPerimeter=0;" parent="4ntPDwli7KKJA4_EWOXy-3" source="4ntPDwli7KKJA4_EWOXy-58" target="4ntPDwli7KKJA4_EWOXy-59" edge="1">
          <mxGeometry relative="1" as="geometry" />
        </mxCell>
        <mxCell id="4ntPDwli7KKJA4_EWOXy-87" style="edgeStyle=orthogonalEdgeStyle;rounded=0;orthogonalLoop=1;jettySize=auto;html=1;exitX=0;exitY=0.5;exitDx=0;exitDy=0;exitPerimeter=0;entryX=1;entryY=0.5;entryDx=0;entryDy=0;" parent="4ntPDwli7KKJA4_EWOXy-3" source="4ntPDwli7KKJA4_EWOXy-83" target="4ntPDwli7KKJA4_EWOXy-40" edge="1">
          <mxGeometry relative="1" as="geometry" />
        </mxCell>
        <mxCell id="4ntPDwli7KKJA4_EWOXy-88" value="No" style="edgeLabel;html=1;align=center;verticalAlign=middle;resizable=0;points=[];" parent="4ntPDwli7KKJA4_EWOXy-87" vertex="1" connectable="0">
          <mxGeometry x="-0.8532" relative="1" as="geometry">
            <mxPoint as="offset" />
          </mxGeometry>
        </mxCell>
        <mxCell id="4ntPDwli7KKJA4_EWOXy-83" value="Visto bueno de guionistas?" style="points=[[0.25,0.25,0],[0.5,0,0],[0.75,0.25,0],[1,0.5,0],[0.75,0.75,0],[0.5,1,0],[0.25,0.75,0],[0,0.5,0]];shape=mxgraph.bpmn.gateway2;html=1;verticalLabelPosition=bottom;labelBackgroundColor=#ffffff;verticalAlign=top;align=center;perimeter=rhombusPerimeter;outlineConnect=0;outline=none;symbol=none;" parent="4ntPDwli7KKJA4_EWOXy-3" vertex="1">
          <mxGeometry x="232" y="450" width="50" height="50" as="geometry" />
        </mxCell>
        <mxCell id="4ntPDwli7KKJA4_EWOXy-86" style="edgeStyle=orthogonalEdgeStyle;rounded=0;orthogonalLoop=1;jettySize=auto;html=1;exitX=0.5;exitY=1;exitDx=0;exitDy=0;exitPerimeter=0;entryX=0.5;entryY=0;entryDx=0;entryDy=0;entryPerimeter=0;" parent="4ntPDwli7KKJA4_EWOXy-3" source="4ntPDwli7KKJA4_EWOXy-59" target="4ntPDwli7KKJA4_EWOXy-83" edge="1">
          <mxGeometry relative="1" as="geometry" />
        </mxCell>
        <mxCell id="4ntPDwli7KKJA4_EWOXy-89" value="" style="points=[[0.25,0.25,0],[0.5,0,0],[0.75,0.25,0],[1,0.5,0],[0.75,0.75,0],[0.5,1,0],[0.25,0.75,0],[0,0.5,0]];shape=mxgraph.bpmn.gateway2;html=1;verticalLabelPosition=bottom;labelBackgroundColor=#ffffff;verticalAlign=top;align=center;perimeter=rhombusPerimeter;outlineConnect=0;outline=none;symbol=none;gwType=parallel;" parent="4ntPDwli7KKJA4_EWOXy-3" vertex="1">
          <mxGeometry x="232" y="570" width="50" height="50" as="geometry" />
        </mxCell>
        <mxCell id="4ntPDwli7KKJA4_EWOXy-90" style="edgeStyle=orthogonalEdgeStyle;rounded=0;orthogonalLoop=1;jettySize=auto;html=1;exitX=0.5;exitY=1;exitDx=0;exitDy=0;exitPerimeter=0;entryX=0.5;entryY=0;entryDx=0;entryDy=0;entryPerimeter=0;" parent="4ntPDwli7KKJA4_EWOXy-3" source="4ntPDwli7KKJA4_EWOXy-83" target="4ntPDwli7KKJA4_EWOXy-89" edge="1">
          <mxGeometry relative="1" as="geometry" />
        </mxCell>
        <mxCell id="4ntPDwli7KKJA4_EWOXy-91" value="Si" style="edgeLabel;html=1;align=center;verticalAlign=middle;resizable=0;points=[];" parent="4ntPDwli7KKJA4_EWOXy-90" vertex="1" connectable="0">
          <mxGeometry x="0.4" relative="1" as="geometry">
            <mxPoint as="offset" />
          </mxGeometry>
        </mxCell>
        <mxCell id="4ntPDwli7KKJA4_EWOXy-92" value="Enviar guion a Marketing" style="points=[[0.145,0.145,0],[0.5,0,0],[0.855,0.145,0],[1,0.5,0],[0.855,0.855,0],[0.5,1,0],[0.145,0.855,0],[0,0.5,0]];shape=mxgraph.bpmn.event;html=1;verticalLabelPosition=bottom;labelBackgroundColor=#ffffff;verticalAlign=top;align=center;perimeter=ellipsePerimeter;outlineConnect=0;aspect=fixed;outline=throwing;symbol=message;" parent="4ntPDwli7KKJA4_EWOXy-3" vertex="1">
          <mxGeometry x="280" y="660" width="50" height="50" as="geometry" />
        </mxCell>
        <mxCell id="4ntPDwli7KKJA4_EWOXy-93" value="Enviar guion a produccion" style="points=[[0.145,0.145,0],[0.5,0,0],[0.855,0.145,0],[1,0.5,0],[0.855,0.855,0],[0.5,1,0],[0.145,0.855,0],[0,0.5,0]];shape=mxgraph.bpmn.event;html=1;verticalLabelPosition=bottom;labelBackgroundColor=#ffffff;verticalAlign=top;align=center;perimeter=ellipsePerimeter;outlineConnect=0;aspect=fixed;outline=throwing;symbol=message;" parent="4ntPDwli7KKJA4_EWOXy-3" vertex="1">
          <mxGeometry x="62" y="660" width="50" height="50" as="geometry" />
        </mxCell>
        <mxCell id="4ntPDwli7KKJA4_EWOXy-94" value="Respuesta de produccion" style="points=[[0.145,0.145,0],[0.5,0,0],[0.855,0.145,0],[1,0.5,0],[0.855,0.855,0],[0.5,1,0],[0.145,0.855,0],[0,0.5,0]];shape=mxgraph.bpmn.event;html=1;verticalLabelPosition=bottom;labelBackgroundColor=#ffffff;verticalAlign=top;align=center;perimeter=ellipsePerimeter;outlineConnect=0;aspect=fixed;outline=catching;symbol=message;" parent="4ntPDwli7KKJA4_EWOXy-3" vertex="1">
          <mxGeometry x="62" y="760" width="50" height="50" as="geometry" />
        </mxCell>
        <mxCell id="4ntPDwli7KKJA4_EWOXy-95" value="Respuesta de Marketing" style="points=[[0.145,0.145,0],[0.5,0,0],[0.855,0.145,0],[1,0.5,0],[0.855,0.855,0],[0.5,1,0],[0.145,0.855,0],[0,0.5,0]];shape=mxgraph.bpmn.event;html=1;verticalLabelPosition=bottom;labelBackgroundColor=#ffffff;verticalAlign=top;align=center;perimeter=ellipsePerimeter;outlineConnect=0;aspect=fixed;outline=catching;symbol=message;" parent="4ntPDwli7KKJA4_EWOXy-3" vertex="1">
          <mxGeometry x="280" y="760" width="50" height="50" as="geometry" />
        </mxCell>
        <mxCell id="4ntPDwli7KKJA4_EWOXy-96" style="edgeStyle=orthogonalEdgeStyle;rounded=0;orthogonalLoop=1;jettySize=auto;html=1;exitX=1;exitY=0.5;exitDx=0;exitDy=0;exitPerimeter=0;entryX=0.5;entryY=0;entryDx=0;entryDy=0;entryPerimeter=0;" parent="4ntPDwli7KKJA4_EWOXy-3" source="4ntPDwli7KKJA4_EWOXy-89" target="4ntPDwli7KKJA4_EWOXy-92" edge="1">
          <mxGeometry relative="1" as="geometry" />
        </mxCell>
        <mxCell id="4ntPDwli7KKJA4_EWOXy-97" style="edgeStyle=orthogonalEdgeStyle;rounded=0;orthogonalLoop=1;jettySize=auto;html=1;exitX=0;exitY=0.5;exitDx=0;exitDy=0;exitPerimeter=0;entryX=0.5;entryY=0;entryDx=0;entryDy=0;entryPerimeter=0;" parent="4ntPDwli7KKJA4_EWOXy-3" source="4ntPDwli7KKJA4_EWOXy-89" target="4ntPDwli7KKJA4_EWOXy-93" edge="1">
          <mxGeometry relative="1" as="geometry" />
        </mxCell>
        <mxCell id="4ntPDwli7KKJA4_EWOXy-98" style="edgeStyle=orthogonalEdgeStyle;rounded=0;orthogonalLoop=1;jettySize=auto;html=1;exitX=0.5;exitY=1;exitDx=0;exitDy=0;exitPerimeter=0;entryX=0.5;entryY=0;entryDx=0;entryDy=0;entryPerimeter=0;" parent="4ntPDwli7KKJA4_EWOXy-3" source="4ntPDwli7KKJA4_EWOXy-92" target="4ntPDwli7KKJA4_EWOXy-95" edge="1">
          <mxGeometry relative="1" as="geometry" />
        </mxCell>
        <mxCell id="4ntPDwli7KKJA4_EWOXy-99" style="edgeStyle=orthogonalEdgeStyle;rounded=0;orthogonalLoop=1;jettySize=auto;html=1;exitX=0.5;exitY=1;exitDx=0;exitDy=0;exitPerimeter=0;entryX=0.5;entryY=0;entryDx=0;entryDy=0;entryPerimeter=0;" parent="4ntPDwli7KKJA4_EWOXy-3" source="4ntPDwli7KKJA4_EWOXy-93" target="4ntPDwli7KKJA4_EWOXy-94" edge="1">
          <mxGeometry relative="1" as="geometry" />
        </mxCell>
        <mxCell id="4ntPDwli7KKJA4_EWOXy-136" style="edgeStyle=orthogonalEdgeStyle;rounded=0;orthogonalLoop=1;jettySize=auto;html=1;exitX=0.5;exitY=1;exitDx=0;exitDy=0;exitPerimeter=0;" parent="4ntPDwli7KKJA4_EWOXy-3" source="4ntPDwli7KKJA4_EWOXy-100" target="4ntPDwli7KKJA4_EWOXy-124" edge="1">
          <mxGeometry relative="1" as="geometry" />
        </mxCell>
        <mxCell id="4ntPDwli7KKJA4_EWOXy-100" value="" style="points=[[0.25,0.25,0],[0.5,0,0],[0.75,0.25,0],[1,0.5,0],[0.75,0.75,0],[0.5,1,0],[0.25,0.75,0],[0,0.5,0]];shape=mxgraph.bpmn.gateway2;html=1;verticalLabelPosition=bottom;labelBackgroundColor=#ffffff;verticalAlign=top;align=center;perimeter=rhombusPerimeter;outlineConnect=0;outline=none;symbol=none;gwType=parallel;" parent="4ntPDwli7KKJA4_EWOXy-3" vertex="1">
          <mxGeometry x="180" y="840" width="50" height="50" as="geometry" />
        </mxCell>
        <mxCell id="4ntPDwli7KKJA4_EWOXy-101" style="edgeStyle=orthogonalEdgeStyle;rounded=0;orthogonalLoop=1;jettySize=auto;html=1;exitX=0.5;exitY=1;exitDx=0;exitDy=0;exitPerimeter=0;entryX=1;entryY=0.5;entryDx=0;entryDy=0;entryPerimeter=0;" parent="4ntPDwli7KKJA4_EWOXy-3" source="4ntPDwli7KKJA4_EWOXy-95" target="4ntPDwli7KKJA4_EWOXy-100" edge="1">
          <mxGeometry relative="1" as="geometry" />
        </mxCell>
        <mxCell id="4ntPDwli7KKJA4_EWOXy-102" style="edgeStyle=orthogonalEdgeStyle;rounded=0;orthogonalLoop=1;jettySize=auto;html=1;exitX=0.5;exitY=1;exitDx=0;exitDy=0;exitPerimeter=0;entryX=0;entryY=0.5;entryDx=0;entryDy=0;entryPerimeter=0;" parent="4ntPDwli7KKJA4_EWOXy-3" source="4ntPDwli7KKJA4_EWOXy-94" target="4ntPDwli7KKJA4_EWOXy-100" edge="1">
          <mxGeometry relative="1" as="geometry" />
        </mxCell>
        <mxCell id="4ntPDwli7KKJA4_EWOXy-124" value="Calcular presupuesto final" style="points=[[0.25,0,0],[0.5,0,0],[0.75,0,0],[1,0.25,0],[1,0.5,0],[1,0.75,0],[0.75,1,0],[0.5,1,0],[0.25,1,0],[0,0.75,0],[0,0.5,0],[0,0.25,0]];shape=mxgraph.bpmn.task2;whiteSpace=wrap;rectStyle=rounded;size=10;html=1;container=1;expand=0;collapsible=0;taskMarker=abstract;" parent="4ntPDwli7KKJA4_EWOXy-3" vertex="1">
          <mxGeometry x="145" y="930" width="120" height="50" as="geometry" />
        </mxCell>
        <mxCell id="4ntPDwli7KKJA4_EWOXy-137" value="Comunicar resultados" style="points=[[0.145,0.145,0],[0.5,0,0],[0.855,0.145,0],[1,0.5,0],[0.855,0.855,0],[0.5,1,0],[0.145,0.855,0],[0,0.5,0]];shape=mxgraph.bpmn.event;html=1;verticalLabelPosition=bottom;labelBackgroundColor=#ffffff;verticalAlign=top;align=center;perimeter=ellipsePerimeter;outlineConnect=0;aspect=fixed;outline=end;symbol=message;" parent="4ntPDwli7KKJA4_EWOXy-3" vertex="1">
          <mxGeometry x="176" y="1110" width="50" height="50" as="geometry" />
        </mxCell>
        <mxCell id="4ntPDwli7KKJA4_EWOXy-138" style="edgeStyle=orthogonalEdgeStyle;rounded=0;orthogonalLoop=1;jettySize=auto;html=1;exitX=0.5;exitY=1;exitDx=0;exitDy=0;exitPerimeter=0;entryX=0.5;entryY=0;entryDx=0;entryDy=0;" parent="4ntPDwli7KKJA4_EWOXy-3" source="4ntPDwli7KKJA4_EWOXy-124" target="AojAtGbszMKB-Ow7NaBF-45" edge="1">
          <mxGeometry relative="1" as="geometry" />
        </mxCell>
        <mxCell id="AojAtGbszMKB-Ow7NaBF-50" style="edgeStyle=orthogonalEdgeStyle;rounded=0;orthogonalLoop=1;jettySize=auto;html=1;entryX=0;entryY=0.5;entryDx=0;entryDy=0;exitX=0.164;exitY=0.975;exitDx=0;exitDy=0;exitPerimeter=0;" edge="1" parent="4ntPDwli7KKJA4_EWOXy-3" source="AojAtGbszMKB-Ow7NaBF-8" target="AojAtGbszMKB-Ow7NaBF-45">
          <mxGeometry relative="1" as="geometry" />
        </mxCell>
        <mxCell id="AojAtGbszMKB-Ow7NaBF-8" value="Comunicar rechazo de propuesta" style="points=[[0.25,0,0],[0.5,0,0],[0.75,0,0],[1,0.25,0],[1,0.5,0],[1,0.75,0],[0.75,1,0],[0.5,1,0],[0.25,1,0],[0,0.75,0],[0,0.5,0],[0,0.25,0]];shape=mxgraph.bpmn.task2;whiteSpace=wrap;rectStyle=rounded;size=10;html=1;container=1;expand=0;collapsible=0;taskMarker=abstract;" vertex="1" parent="4ntPDwli7KKJA4_EWOXy-3">
          <mxGeometry x="6" y="380" width="110" height="40" as="geometry" />
        </mxCell>
        <mxCell id="AojAtGbszMKB-Ow7NaBF-46" style="edgeStyle=orthogonalEdgeStyle;rounded=0;orthogonalLoop=1;jettySize=auto;html=1;" edge="1" parent="4ntPDwli7KKJA4_EWOXy-3" source="AojAtGbszMKB-Ow7NaBF-45" target="4ntPDwli7KKJA4_EWOXy-137">
          <mxGeometry relative="1" as="geometry" />
        </mxCell>
        <mxCell id="AojAtGbszMKB-Ow7NaBF-45" value="" style="rhombus;whiteSpace=wrap;html=1;" vertex="1" parent="4ntPDwli7KKJA4_EWOXy-3">
          <mxGeometry x="172" y="1010" width="58" height="60" as="geometry" />
        </mxCell>
        <mxCell id="4ntPDwli7KKJA4_EWOXy-4" value="Departamento de guionistas" style="swimlane;html=1;startSize=20;" parent="4ntPDwli7KKJA4_EWOXy-1" vertex="1">
          <mxGeometry x="590" y="20" width="320" height="1210" as="geometry" />
        </mxCell>
        <mxCell id="4ntPDwli7KKJA4_EWOXy-62" value="" style="points=[[0.145,0.145,0],[0.5,0,0],[0.855,0.145,0],[1,0.5,0],[0.855,0.855,0],[0.5,1,0],[0.145,0.855,0],[0,0.5,0]];shape=mxgraph.bpmn.event;html=1;verticalLabelPosition=bottom;labelBackgroundColor=#ffffff;verticalAlign=top;align=center;perimeter=ellipsePerimeter;outlineConnect=0;aspect=fixed;outline=standard;symbol=message;" parent="4ntPDwli7KKJA4_EWOXy-4" vertex="1">
          <mxGeometry x="135" y="40" width="50" height="50" as="geometry" />
        </mxCell>
        <mxCell id="4ntPDwli7KKJA4_EWOXy-63" value="Comenzar evaluacion de guion" style="points=[[0.25,0,0],[0.5,0,0],[0.75,0,0],[1,0.25,0],[1,0.5,0],[1,0.75,0],[0.75,1,0],[0.5,1,0],[0.25,1,0],[0,0.75,0],[0,0.5,0],[0,0.25,0]];shape=mxgraph.bpmn.task2;whiteSpace=wrap;rectStyle=rounded;size=10;html=1;container=1;expand=0;collapsible=0;taskMarker=abstract;" parent="4ntPDwli7KKJA4_EWOXy-4" vertex="1">
          <mxGeometry x="104.5" y="110" width="110" height="50" as="geometry" />
        </mxCell>
        <mxCell id="4ntPDwli7KKJA4_EWOXy-64" value="Historia atractiva" style="points=[[0.25,0,0],[0.5,0,0],[0.75,0,0],[1,0.25,0],[1,0.5,0],[1,0.75,0],[0.75,1,0],[0.5,1,0],[0.25,1,0],[0,0.75,0],[0,0.5,0],[0,0.25,0]];shape=mxgraph.bpmn.task2;whiteSpace=wrap;rectStyle=rounded;size=10;html=1;container=1;expand=0;collapsible=0;taskMarker=abstract;" parent="4ntPDwli7KKJA4_EWOXy-4" vertex="1">
          <mxGeometry x="9.5" y="252.5" width="90" height="27.5" as="geometry" />
        </mxCell>
        <mxCell id="4ntPDwli7KKJA4_EWOXy-65" value="Giros de guion" style="points=[[0.25,0,0],[0.5,0,0],[0.75,0,0],[1,0.25,0],[1,0.5,0],[1,0.75,0],[0.75,1,0],[0.5,1,0],[0.25,1,0],[0,0.75,0],[0,0.5,0],[0,0.25,0]];shape=mxgraph.bpmn.task2;whiteSpace=wrap;rectStyle=rounded;size=10;html=1;container=1;expand=0;collapsible=0;taskMarker=abstract;" parent="4ntPDwli7KKJA4_EWOXy-4" vertex="1">
          <mxGeometry x="111" y="250" width="90" height="30" as="geometry" />
        </mxCell>
        <mxCell id="4ntPDwli7KKJA4_EWOXy-66" value="Duracion coincide" style="points=[[0.25,0,0],[0.5,0,0],[0.75,0,0],[1,0.25,0],[1,0.5,0],[1,0.75,0],[0.75,1,0],[0.5,1,0],[0.25,1,0],[0,0.75,0],[0,0.5,0],[0,0.25,0]];shape=mxgraph.bpmn.task2;whiteSpace=wrap;rectStyle=rounded;size=10;html=1;container=1;expand=0;collapsible=0;taskMarker=abstract;" parent="4ntPDwli7KKJA4_EWOXy-4" vertex="1">
          <mxGeometry x="210" y="250" width="90" height="32.5" as="geometry" />
        </mxCell>
        <mxCell id="4ntPDwli7KKJA4_EWOXy-68" value="" style="points=[[0.25,0.25,0],[0.5,0,0],[0.75,0.25,0],[1,0.5,0],[0.75,0.75,0],[0.5,1,0],[0.25,0.75,0],[0,0.5,0]];shape=mxgraph.bpmn.gateway2;html=1;verticalLabelPosition=bottom;labelBackgroundColor=#ffffff;verticalAlign=top;align=center;perimeter=rhombusPerimeter;outlineConnect=0;outline=none;symbol=none;gwType=parallel;" parent="4ntPDwli7KKJA4_EWOXy-4" vertex="1">
          <mxGeometry x="130" y="180" width="50" height="50" as="geometry" />
        </mxCell>
        <mxCell id="4ntPDwli7KKJA4_EWOXy-69" value="" style="points=[[0.25,0.25,0],[0.5,0,0],[0.75,0.25,0],[1,0.5,0],[0.75,0.75,0],[0.5,1,0],[0.25,0.75,0],[0,0.5,0]];shape=mxgraph.bpmn.gateway2;html=1;verticalLabelPosition=bottom;labelBackgroundColor=#ffffff;verticalAlign=top;align=center;perimeter=rhombusPerimeter;outlineConnect=0;outline=none;symbol=none;gwType=parallel;" parent="4ntPDwli7KKJA4_EWOXy-4" vertex="1">
          <mxGeometry x="130" y="310" width="50" height="50" as="geometry" />
        </mxCell>
        <mxCell id="4ntPDwli7KKJA4_EWOXy-71" style="edgeStyle=orthogonalEdgeStyle;rounded=0;orthogonalLoop=1;jettySize=auto;html=1;exitX=0;exitY=0.5;exitDx=0;exitDy=0;exitPerimeter=0;entryX=0.5;entryY=0;entryDx=0;entryDy=0;entryPerimeter=0;" parent="4ntPDwli7KKJA4_EWOXy-4" source="4ntPDwli7KKJA4_EWOXy-68" target="4ntPDwli7KKJA4_EWOXy-64" edge="1">
          <mxGeometry relative="1" as="geometry" />
        </mxCell>
        <mxCell id="4ntPDwli7KKJA4_EWOXy-72" style="edgeStyle=orthogonalEdgeStyle;rounded=0;orthogonalLoop=1;jettySize=auto;html=1;exitX=1;exitY=0.5;exitDx=0;exitDy=0;exitPerimeter=0;entryX=0.5;entryY=0;entryDx=0;entryDy=0;entryPerimeter=0;" parent="4ntPDwli7KKJA4_EWOXy-4" source="4ntPDwli7KKJA4_EWOXy-68" target="4ntPDwli7KKJA4_EWOXy-66" edge="1">
          <mxGeometry relative="1" as="geometry" />
        </mxCell>
        <mxCell id="4ntPDwli7KKJA4_EWOXy-73" style="edgeStyle=orthogonalEdgeStyle;rounded=0;orthogonalLoop=1;jettySize=auto;html=1;exitX=0.5;exitY=1;exitDx=0;exitDy=0;exitPerimeter=0;entryX=0.5;entryY=0;entryDx=0;entryDy=0;entryPerimeter=0;" parent="4ntPDwli7KKJA4_EWOXy-4" source="4ntPDwli7KKJA4_EWOXy-68" target="4ntPDwli7KKJA4_EWOXy-65" edge="1">
          <mxGeometry relative="1" as="geometry" />
        </mxCell>
        <mxCell id="4ntPDwli7KKJA4_EWOXy-74" style="edgeStyle=orthogonalEdgeStyle;rounded=0;orthogonalLoop=1;jettySize=auto;html=1;exitX=0.5;exitY=1;exitDx=0;exitDy=0;exitPerimeter=0;entryX=0;entryY=0.5;entryDx=0;entryDy=0;entryPerimeter=0;" parent="4ntPDwli7KKJA4_EWOXy-4" source="4ntPDwli7KKJA4_EWOXy-64" target="4ntPDwli7KKJA4_EWOXy-69" edge="1">
          <mxGeometry relative="1" as="geometry" />
        </mxCell>
        <mxCell id="4ntPDwli7KKJA4_EWOXy-75" style="edgeStyle=orthogonalEdgeStyle;rounded=0;orthogonalLoop=1;jettySize=auto;html=1;exitX=0.5;exitY=1;exitDx=0;exitDy=0;exitPerimeter=0;entryX=1;entryY=0.5;entryDx=0;entryDy=0;entryPerimeter=0;" parent="4ntPDwli7KKJA4_EWOXy-4" source="4ntPDwli7KKJA4_EWOXy-66" target="4ntPDwli7KKJA4_EWOXy-69" edge="1">
          <mxGeometry relative="1" as="geometry" />
        </mxCell>
        <mxCell id="4ntPDwli7KKJA4_EWOXy-76" style="edgeStyle=orthogonalEdgeStyle;rounded=0;orthogonalLoop=1;jettySize=auto;html=1;exitX=0.5;exitY=1;exitDx=0;exitDy=0;exitPerimeter=0;entryX=0.5;entryY=0;entryDx=0;entryDy=0;entryPerimeter=0;" parent="4ntPDwli7KKJA4_EWOXy-4" source="4ntPDwli7KKJA4_EWOXy-65" target="4ntPDwli7KKJA4_EWOXy-69" edge="1">
          <mxGeometry relative="1" as="geometry" />
        </mxCell>
        <mxCell id="4ntPDwli7KKJA4_EWOXy-77" style="edgeStyle=orthogonalEdgeStyle;rounded=0;orthogonalLoop=1;jettySize=auto;html=1;exitX=0.5;exitY=1;exitDx=0;exitDy=0;exitPerimeter=0;entryX=0.5;entryY=0;entryDx=0;entryDy=0;entryPerimeter=0;" parent="4ntPDwli7KKJA4_EWOXy-4" source="4ntPDwli7KKJA4_EWOXy-62" target="4ntPDwli7KKJA4_EWOXy-63" edge="1">
          <mxGeometry relative="1" as="geometry" />
        </mxCell>
        <mxCell id="4ntPDwli7KKJA4_EWOXy-78" style="edgeStyle=orthogonalEdgeStyle;rounded=0;orthogonalLoop=1;jettySize=auto;html=1;exitX=0.5;exitY=1;exitDx=0;exitDy=0;exitPerimeter=0;entryX=0.5;entryY=0;entryDx=0;entryDy=0;entryPerimeter=0;" parent="4ntPDwli7KKJA4_EWOXy-4" source="4ntPDwli7KKJA4_EWOXy-63" target="4ntPDwli7KKJA4_EWOXy-68" edge="1">
          <mxGeometry relative="1" as="geometry" />
        </mxCell>
        <mxCell id="4ntPDwli7KKJA4_EWOXy-80" value="Enviar respuesta" style="points=[[0.145,0.145,0],[0.5,0,0],[0.855,0.145,0],[1,0.5,0],[0.855,0.855,0],[0.5,1,0],[0.145,0.855,0],[0,0.5,0]];shape=mxgraph.bpmn.event;html=1;verticalLabelPosition=bottom;labelBackgroundColor=#ffffff;verticalAlign=top;align=center;perimeter=ellipsePerimeter;outlineConnect=0;aspect=fixed;outline=end;symbol=message;" parent="4ntPDwli7KKJA4_EWOXy-4" vertex="1">
          <mxGeometry x="130" y="410" width="50" height="50" as="geometry" />
        </mxCell>
        <mxCell id="4ntPDwli7KKJA4_EWOXy-81" style="edgeStyle=orthogonalEdgeStyle;rounded=0;orthogonalLoop=1;jettySize=auto;html=1;exitX=0.5;exitY=1;exitDx=0;exitDy=0;exitPerimeter=0;entryX=0.5;entryY=0;entryDx=0;entryDy=0;entryPerimeter=0;" parent="4ntPDwli7KKJA4_EWOXy-4" source="4ntPDwli7KKJA4_EWOXy-69" target="4ntPDwli7KKJA4_EWOXy-80" edge="1">
          <mxGeometry relative="1" as="geometry" />
        </mxCell>
        <mxCell id="4ntPDwli7KKJA4_EWOXy-5" value="Departamento de Marketing" style="swimlane;html=1;startSize=20;" parent="4ntPDwli7KKJA4_EWOXy-1" vertex="1">
          <mxGeometry x="910" y="20" width="330" height="1210" as="geometry" />
        </mxCell>
        <mxCell id="4ntPDwli7KKJA4_EWOXy-103" value="" style="points=[[0.145,0.145,0],[0.5,0,0],[0.855,0.145,0],[1,0.5,0],[0.855,0.855,0],[0.5,1,0],[0.145,0.855,0],[0,0.5,0]];shape=mxgraph.bpmn.event;html=1;verticalLabelPosition=bottom;labelBackgroundColor=#ffffff;verticalAlign=top;align=center;perimeter=ellipsePerimeter;outlineConnect=0;aspect=fixed;outline=standard;symbol=message;" parent="4ntPDwli7KKJA4_EWOXy-5" vertex="1">
          <mxGeometry x="150" y="40" width="50" height="50" as="geometry" />
        </mxCell>
        <mxCell id="4ntPDwli7KKJA4_EWOXy-104" value="Calcular presupuesto de la campaña" style="points=[[0.25,0,0],[0.5,0,0],[0.75,0,0],[1,0.25,0],[1,0.5,0],[1,0.75,0],[0.75,1,0],[0.5,1,0],[0.25,1,0],[0,0.75,0],[0,0.5,0],[0,0.25,0]];shape=mxgraph.bpmn.task2;whiteSpace=wrap;rectStyle=rounded;size=10;html=1;container=1;expand=0;collapsible=0;taskMarker=abstract;" parent="4ntPDwli7KKJA4_EWOXy-5" vertex="1">
          <mxGeometry x="115" y="140" width="120" height="50" as="geometry" />
        </mxCell>
        <mxCell id="4ntPDwli7KKJA4_EWOXy-105" value="Nacional o internacional" style="points=[[0.25,0.25,0],[0.5,0,0],[0.75,0.25,0],[1,0.5,0],[0.75,0.75,0],[0.5,1,0],[0.25,0.75,0],[0,0.5,0]];shape=mxgraph.bpmn.gateway2;html=1;verticalLabelPosition=bottom;labelBackgroundColor=#ffffff;verticalAlign=top;align=center;perimeter=rhombusPerimeter;outlineConnect=0;outline=none;symbol=none;" parent="4ntPDwli7KKJA4_EWOXy-5" vertex="1">
          <mxGeometry x="150" y="250" width="50" height="50" as="geometry" />
        </mxCell>
        <mxCell id="4ntPDwli7KKJA4_EWOXy-106" value="" style="points=[[0.25,0.25,0],[0.5,0,0],[0.75,0.25,0],[1,0.5,0],[0.75,0.75,0],[0.5,1,0],[0.25,0.75,0],[0,0.5,0]];shape=mxgraph.bpmn.gateway2;html=1;verticalLabelPosition=bottom;labelBackgroundColor=#ffffff;verticalAlign=top;align=center;perimeter=rhombusPerimeter;outlineConnect=0;outline=none;symbol=none;" parent="4ntPDwli7KKJA4_EWOXy-5" vertex="1">
          <mxGeometry x="150" y="380" width="50" height="50" as="geometry" />
        </mxCell>
        <mxCell id="4ntPDwli7KKJA4_EWOXy-108" value="Precio nacional" style="points=[[0.25,0,0],[0.5,0,0],[0.75,0,0],[1,0.25,0],[1,0.5,0],[1,0.75,0],[0.75,1,0],[0.5,1,0],[0.25,1,0],[0,0.75,0],[0,0.5,0],[0,0.25,0]];shape=mxgraph.bpmn.task2;whiteSpace=wrap;rectStyle=rounded;size=10;html=1;container=1;expand=0;collapsible=0;taskMarker=abstract;" parent="4ntPDwli7KKJA4_EWOXy-5" vertex="1">
          <mxGeometry x="10" y="330" width="120" height="30" as="geometry" />
        </mxCell>
        <mxCell id="4ntPDwli7KKJA4_EWOXy-107" value="Precio internacional" style="points=[[0.25,0,0],[0.5,0,0],[0.75,0,0],[1,0.25,0],[1,0.5,0],[1,0.75,0],[0.75,1,0],[0.5,1,0],[0.25,1,0],[0,0.75,0],[0,0.5,0],[0,0.25,0]];shape=mxgraph.bpmn.task2;whiteSpace=wrap;rectStyle=rounded;size=10;html=1;container=1;expand=0;collapsible=0;taskMarker=abstract;" parent="4ntPDwli7KKJA4_EWOXy-5" vertex="1">
          <mxGeometry x="200" y="320" width="120" height="30" as="geometry" />
        </mxCell>
        <mxCell id="4ntPDwli7KKJA4_EWOXy-109" value="Enviar presupuesto" style="points=[[0.145,0.145,0],[0.5,0,0],[0.855,0.145,0],[1,0.5,0],[0.855,0.855,0],[0.5,1,0],[0.145,0.855,0],[0,0.5,0]];shape=mxgraph.bpmn.event;html=1;verticalLabelPosition=bottom;labelBackgroundColor=#ffffff;verticalAlign=top;align=center;perimeter=ellipsePerimeter;outlineConnect=0;aspect=fixed;outline=end;symbol=message;" parent="4ntPDwli7KKJA4_EWOXy-5" vertex="1">
          <mxGeometry x="150" y="500" width="50" height="50" as="geometry" />
        </mxCell>
        <mxCell id="4ntPDwli7KKJA4_EWOXy-110" style="edgeStyle=orthogonalEdgeStyle;rounded=0;orthogonalLoop=1;jettySize=auto;html=1;exitX=0.5;exitY=1;exitDx=0;exitDy=0;exitPerimeter=0;entryX=0.5;entryY=0;entryDx=0;entryDy=0;entryPerimeter=0;" parent="4ntPDwli7KKJA4_EWOXy-5" source="4ntPDwli7KKJA4_EWOXy-103" target="4ntPDwli7KKJA4_EWOXy-104" edge="1">
          <mxGeometry relative="1" as="geometry" />
        </mxCell>
        <mxCell id="4ntPDwli7KKJA4_EWOXy-111" style="edgeStyle=orthogonalEdgeStyle;rounded=0;orthogonalLoop=1;jettySize=auto;html=1;exitX=0.5;exitY=1;exitDx=0;exitDy=0;exitPerimeter=0;entryX=0.5;entryY=0;entryDx=0;entryDy=0;entryPerimeter=0;" parent="4ntPDwli7KKJA4_EWOXy-5" source="4ntPDwli7KKJA4_EWOXy-104" target="4ntPDwli7KKJA4_EWOXy-105" edge="1">
          <mxGeometry relative="1" as="geometry" />
        </mxCell>
        <mxCell id="4ntPDwli7KKJA4_EWOXy-112" style="edgeStyle=orthogonalEdgeStyle;rounded=0;orthogonalLoop=1;jettySize=auto;html=1;exitX=1;exitY=0.5;exitDx=0;exitDy=0;exitPerimeter=0;entryX=0.5;entryY=0;entryDx=0;entryDy=0;entryPerimeter=0;" parent="4ntPDwli7KKJA4_EWOXy-5" source="4ntPDwli7KKJA4_EWOXy-105" target="4ntPDwli7KKJA4_EWOXy-107" edge="1">
          <mxGeometry relative="1" as="geometry" />
        </mxCell>
        <mxCell id="4ntPDwli7KKJA4_EWOXy-117" value="Internacional" style="edgeLabel;html=1;align=center;verticalAlign=middle;resizable=0;points=[];" parent="4ntPDwli7KKJA4_EWOXy-112" vertex="1" connectable="0">
          <mxGeometry x="-0.4095" y="-5" relative="1" as="geometry">
            <mxPoint as="offset" />
          </mxGeometry>
        </mxCell>
        <mxCell id="4ntPDwli7KKJA4_EWOXy-113" style="edgeStyle=orthogonalEdgeStyle;rounded=0;orthogonalLoop=1;jettySize=auto;html=1;exitX=0;exitY=0.5;exitDx=0;exitDy=0;exitPerimeter=0;entryX=0.5;entryY=0;entryDx=0;entryDy=0;entryPerimeter=0;" parent="4ntPDwli7KKJA4_EWOXy-5" source="4ntPDwli7KKJA4_EWOXy-105" target="4ntPDwli7KKJA4_EWOXy-108" edge="1">
          <mxGeometry relative="1" as="geometry" />
        </mxCell>
        <mxCell id="4ntPDwli7KKJA4_EWOXy-118" value="Nacional" style="edgeLabel;html=1;align=center;verticalAlign=middle;resizable=0;points=[];" parent="4ntPDwli7KKJA4_EWOXy-113" vertex="1" connectable="0">
          <mxGeometry x="-0.4222" relative="1" as="geometry">
            <mxPoint as="offset" />
          </mxGeometry>
        </mxCell>
        <mxCell id="4ntPDwli7KKJA4_EWOXy-114" style="edgeStyle=orthogonalEdgeStyle;rounded=0;orthogonalLoop=1;jettySize=auto;html=1;exitX=0.5;exitY=1;exitDx=0;exitDy=0;exitPerimeter=0;entryX=0;entryY=0.5;entryDx=0;entryDy=0;entryPerimeter=0;" parent="4ntPDwli7KKJA4_EWOXy-5" source="4ntPDwli7KKJA4_EWOXy-108" target="4ntPDwli7KKJA4_EWOXy-106" edge="1">
          <mxGeometry relative="1" as="geometry" />
        </mxCell>
        <mxCell id="4ntPDwli7KKJA4_EWOXy-115" style="edgeStyle=orthogonalEdgeStyle;rounded=0;orthogonalLoop=1;jettySize=auto;html=1;exitX=0.5;exitY=1;exitDx=0;exitDy=0;exitPerimeter=0;entryX=1;entryY=0.5;entryDx=0;entryDy=0;entryPerimeter=0;" parent="4ntPDwli7KKJA4_EWOXy-5" source="4ntPDwli7KKJA4_EWOXy-107" target="4ntPDwli7KKJA4_EWOXy-106" edge="1">
          <mxGeometry relative="1" as="geometry" />
        </mxCell>
        <mxCell id="4ntPDwli7KKJA4_EWOXy-116" style="edgeStyle=orthogonalEdgeStyle;rounded=0;orthogonalLoop=1;jettySize=auto;html=1;exitX=0.5;exitY=1;exitDx=0;exitDy=0;exitPerimeter=0;entryX=0.5;entryY=0;entryDx=0;entryDy=0;entryPerimeter=0;" parent="4ntPDwli7KKJA4_EWOXy-5" source="4ntPDwli7KKJA4_EWOXy-106" target="4ntPDwli7KKJA4_EWOXy-109" edge="1">
          <mxGeometry relative="1" as="geometry" />
        </mxCell>
        <mxCell id="4ntPDwli7KKJA4_EWOXy-28" value="" style="dashed=1;dashPattern=8 4;endArrow=blockThin;endFill=1;startArrow=oval;startFill=0;endSize=6;startSize=4;html=1;rounded=0;exitX=1;exitY=0.5;exitDx=0;exitDy=0;exitPerimeter=0;entryX=0;entryY=0.5;entryDx=0;entryDy=0;entryPerimeter=0;" parent="4ntPDwli7KKJA4_EWOXy-1" source="4ntPDwli7KKJA4_EWOXy-24" target="4ntPDwli7KKJA4_EWOXy-26" edge="1">
          <mxGeometry width="160" relative="1" as="geometry">
            <mxPoint x="70" y="230" as="sourcePoint" />
            <mxPoint x="230" y="230" as="targetPoint" />
          </mxGeometry>
        </mxCell>
        <mxCell id="4ntPDwli7KKJA4_EWOXy-79" value="" style="dashed=1;dashPattern=8 4;endArrow=blockThin;endFill=1;startArrow=oval;startFill=0;endSize=6;startSize=4;html=1;rounded=0;exitX=1;exitY=0.5;exitDx=0;exitDy=0;exitPerimeter=0;entryX=0;entryY=0.5;entryDx=0;entryDy=0;entryPerimeter=0;" parent="4ntPDwli7KKJA4_EWOXy-1" source="4ntPDwli7KKJA4_EWOXy-58" target="4ntPDwli7KKJA4_EWOXy-62" edge="1">
          <mxGeometry width="160" relative="1" as="geometry">
            <mxPoint x="570" y="240" as="sourcePoint" />
            <mxPoint x="730" y="240" as="targetPoint" />
          </mxGeometry>
        </mxCell>
        <mxCell id="4ntPDwli7KKJA4_EWOXy-82" value="" style="dashed=1;dashPattern=8 4;endArrow=blockThin;endFill=1;startArrow=oval;startFill=0;endSize=6;startSize=4;html=1;rounded=0;exitX=0;exitY=0.5;exitDx=0;exitDy=0;exitPerimeter=0;entryX=1;entryY=0.5;entryDx=0;entryDy=0;entryPerimeter=0;" parent="4ntPDwli7KKJA4_EWOXy-1" source="4ntPDwli7KKJA4_EWOXy-80" target="4ntPDwli7KKJA4_EWOXy-59" edge="1">
          <mxGeometry width="160" relative="1" as="geometry">
            <mxPoint x="570" y="240" as="sourcePoint" />
            <mxPoint x="730" y="240" as="targetPoint" />
          </mxGeometry>
        </mxCell>
        <mxCell id="4ntPDwli7KKJA4_EWOXy-119" value="" style="dashed=1;dashPattern=8 4;endArrow=blockThin;endFill=1;startArrow=oval;startFill=0;endSize=6;startSize=4;html=1;rounded=0;exitX=1;exitY=0.5;exitDx=0;exitDy=0;exitPerimeter=0;entryX=0;entryY=0.5;entryDx=0;entryDy=0;entryPerimeter=0;" parent="4ntPDwli7KKJA4_EWOXy-1" source="4ntPDwli7KKJA4_EWOXy-92" target="4ntPDwli7KKJA4_EWOXy-103" edge="1">
          <mxGeometry width="160" relative="1" as="geometry">
            <mxPoint x="570" y="360" as="sourcePoint" />
            <mxPoint x="730" y="360" as="targetPoint" />
            <Array as="points">
              <mxPoint x="930" y="510" />
            </Array>
          </mxGeometry>
        </mxCell>
        <mxCell id="4ntPDwli7KKJA4_EWOXy-120" value="" style="dashed=1;dashPattern=8 4;endArrow=blockThin;endFill=1;startArrow=oval;startFill=0;endSize=6;startSize=4;html=1;rounded=0;entryX=1;entryY=0.5;entryDx=0;entryDy=0;entryPerimeter=0;exitX=0;exitY=0.5;exitDx=0;exitDy=0;exitPerimeter=0;" parent="4ntPDwli7KKJA4_EWOXy-1" source="4ntPDwli7KKJA4_EWOXy-109" target="4ntPDwli7KKJA4_EWOXy-95" edge="1">
          <mxGeometry width="160" relative="1" as="geometry">
            <mxPoint x="570" y="360" as="sourcePoint" />
            <mxPoint x="730" y="360" as="targetPoint" />
          </mxGeometry>
        </mxCell>
        <mxCell id="4ntPDwli7KKJA4_EWOXy-121" value="" style="dashed=1;dashPattern=8 4;endArrow=blockThin;endFill=1;startArrow=oval;startFill=0;endSize=6;startSize=4;html=1;rounded=0;exitX=1;exitY=0.5;exitDx=0;exitDy=0;exitPerimeter=0;entryX=0;entryY=0.5;entryDx=0;entryDy=0;entryPerimeter=0;" parent="4ntPDwli7KKJA4_EWOXy-1" source="4ntPDwli7KKJA4_EWOXy-93" target="AojAtGbszMKB-Ow7NaBF-40" edge="1">
          <mxGeometry width="160" relative="1" as="geometry">
            <mxPoint x="570" y="600" as="sourcePoint" />
            <mxPoint x="1510" y="180" as="targetPoint" />
            <Array as="points">
              <mxPoint x="1140" y="810" />
            </Array>
          </mxGeometry>
        </mxCell>
        <mxCell id="4ntPDwli7KKJA4_EWOXy-141" value="" style="dashed=1;dashPattern=8 4;endArrow=blockThin;endFill=1;startArrow=oval;startFill=0;endSize=6;startSize=4;html=1;rounded=0;exitX=0;exitY=0.5;exitDx=0;exitDy=0;exitPerimeter=0;" parent="4ntPDwli7KKJA4_EWOXy-1" source="4ntPDwli7KKJA4_EWOXy-137" target="4ntPDwli7KKJA4_EWOXy-139" edge="1">
          <mxGeometry width="160" relative="1" as="geometry">
            <mxPoint x="570" y="720" as="sourcePoint" />
            <mxPoint x="730" y="720" as="targetPoint" />
            <Array as="points">
              <mxPoint x="300" y="770" />
            </Array>
          </mxGeometry>
        </mxCell>
        <mxCell id="AojAtGbszMKB-Ow7NaBF-11" value="Departamento de Produccion" style="swimlane;html=1;startSize=20;" vertex="1" parent="4ntPDwli7KKJA4_EWOXy-1">
          <mxGeometry x="1240" y="20" width="330" height="1210" as="geometry" />
        </mxCell>
        <mxCell id="AojAtGbszMKB-Ow7NaBF-28" value="Calcular costes" style="points=[[0.25,0,0],[0.5,0,0],[0.75,0,0],[1,0.25,0],[1,0.5,0],[1,0.75,0],[0.75,1,0],[0.5,1,0],[0.25,1,0],[0,0.75,0],[0,0.5,0],[0,0.25,0]];shape=mxgraph.bpmn.task2;whiteSpace=wrap;rectStyle=rounded;size=10;html=1;container=1;expand=0;collapsible=0;taskMarker=abstract;" vertex="1" parent="AojAtGbszMKB-Ow7NaBF-11">
          <mxGeometry x="115" y="170" width="100" height="40" as="geometry" />
        </mxCell>
        <mxCell id="AojAtGbszMKB-Ow7NaBF-29" style="edgeStyle=orthogonalEdgeStyle;rounded=0;orthogonalLoop=1;jettySize=auto;html=1;exitX=1;exitY=0.5;exitDx=0;exitDy=0;exitPerimeter=0;" edge="1" parent="AojAtGbszMKB-Ow7NaBF-11" source="AojAtGbszMKB-Ow7NaBF-31" target="AojAtGbszMKB-Ow7NaBF-33">
          <mxGeometry relative="1" as="geometry" />
        </mxCell>
        <mxCell id="AojAtGbszMKB-Ow7NaBF-30" value="Nacional" style="edgeLabel;html=1;align=center;verticalAlign=middle;resizable=0;points=[];" vertex="1" connectable="0" parent="AojAtGbszMKB-Ow7NaBF-29">
          <mxGeometry x="0.1333" y="4" relative="1" as="geometry">
            <mxPoint as="offset" />
          </mxGeometry>
        </mxCell>
        <mxCell id="AojAtGbszMKB-Ow7NaBF-31" value="Ubicacion de rodaje" style="points=[[0.25,0.25,0],[0.5,0,0],[0.75,0.25,0],[1,0.5,0],[0.75,0.75,0],[0.5,1,0],[0.25,0.75,0],[0,0.5,0]];shape=mxgraph.bpmn.gateway2;html=1;verticalLabelPosition=bottom;labelBackgroundColor=#ffffff;verticalAlign=top;align=center;perimeter=rhombusPerimeter;outlineConnect=0;outline=end;symbol=general;" vertex="1" parent="AojAtGbszMKB-Ow7NaBF-11">
          <mxGeometry x="140" y="240" width="50" height="50" as="geometry" />
        </mxCell>
        <mxCell id="AojAtGbszMKB-Ow7NaBF-32" value="" style="points=[[0.25,0.25,0],[0.5,0,0],[0.75,0.25,0],[1,0.5,0],[0.75,0.75,0],[0.5,1,0],[0.25,0.75,0],[0,0.5,0]];shape=mxgraph.bpmn.gateway2;html=1;verticalLabelPosition=bottom;labelBackgroundColor=#ffffff;verticalAlign=top;align=center;perimeter=rhombusPerimeter;outlineConnect=0;outline=end;symbol=general;" vertex="1" parent="AojAtGbszMKB-Ow7NaBF-11">
          <mxGeometry x="150" y="380" width="50" height="50" as="geometry" />
        </mxCell>
        <mxCell id="AojAtGbszMKB-Ow7NaBF-33" value="Precio nacional" style="points=[[0.25,0,0],[0.5,0,0],[0.75,0,0],[1,0.25,0],[1,0.5,0],[1,0.75,0],[0.75,1,0],[0.5,1,0],[0.25,1,0],[0,0.75,0],[0,0.5,0],[0,0.25,0]];shape=mxgraph.bpmn.task2;whiteSpace=wrap;rectStyle=rounded;size=10;html=1;container=1;expand=0;collapsible=0;taskMarker=abstract;" vertex="1" parent="AojAtGbszMKB-Ow7NaBF-11">
          <mxGeometry x="215" y="330" width="90" height="40" as="geometry" />
        </mxCell>
        <mxCell id="AojAtGbszMKB-Ow7NaBF-34" style="edgeStyle=orthogonalEdgeStyle;rounded=0;orthogonalLoop=1;jettySize=auto;html=1;exitX=0;exitY=0.5;exitDx=0;exitDy=0;exitPerimeter=0;entryX=0.5;entryY=0;entryDx=0;entryDy=0;entryPerimeter=0;" edge="1" parent="AojAtGbszMKB-Ow7NaBF-11" source="AojAtGbszMKB-Ow7NaBF-31" target="AojAtGbszMKB-Ow7NaBF-39">
          <mxGeometry relative="1" as="geometry">
            <mxPoint x="60" y="410" as="targetPoint" />
          </mxGeometry>
        </mxCell>
        <mxCell id="AojAtGbszMKB-Ow7NaBF-35" value="Extranjero" style="edgeLabel;html=1;align=center;verticalAlign=middle;resizable=0;points=[];" vertex="1" connectable="0" parent="AojAtGbszMKB-Ow7NaBF-34">
          <mxGeometry x="-0.6273" y="-1" relative="1" as="geometry">
            <mxPoint as="offset" />
          </mxGeometry>
        </mxCell>
        <mxCell id="AojAtGbszMKB-Ow7NaBF-36" style="edgeStyle=orthogonalEdgeStyle;rounded=0;orthogonalLoop=1;jettySize=auto;html=1;exitX=0.5;exitY=1;exitDx=0;exitDy=0;exitPerimeter=0;entryX=0;entryY=0.5;entryDx=0;entryDy=0;entryPerimeter=0;" edge="1" parent="AojAtGbszMKB-Ow7NaBF-11" target="AojAtGbszMKB-Ow7NaBF-32" source="AojAtGbszMKB-Ow7NaBF-39">
          <mxGeometry relative="1" as="geometry">
            <mxPoint x="60" y="450" as="sourcePoint" />
          </mxGeometry>
        </mxCell>
        <mxCell id="AojAtGbszMKB-Ow7NaBF-37" style="edgeStyle=orthogonalEdgeStyle;rounded=0;orthogonalLoop=1;jettySize=auto;html=1;exitX=0.5;exitY=1;exitDx=0;exitDy=0;exitPerimeter=0;entryX=1;entryY=0.5;entryDx=0;entryDy=0;entryPerimeter=0;" edge="1" parent="AojAtGbszMKB-Ow7NaBF-11" source="AojAtGbszMKB-Ow7NaBF-33" target="AojAtGbszMKB-Ow7NaBF-32">
          <mxGeometry relative="1" as="geometry" />
        </mxCell>
        <mxCell id="AojAtGbszMKB-Ow7NaBF-38" style="edgeStyle=orthogonalEdgeStyle;rounded=0;orthogonalLoop=1;jettySize=auto;html=1;entryX=0.5;entryY=0;entryDx=0;entryDy=0;entryPerimeter=0;" edge="1" parent="AojAtGbszMKB-Ow7NaBF-11" source="AojAtGbszMKB-Ow7NaBF-28" target="AojAtGbszMKB-Ow7NaBF-31">
          <mxGeometry relative="1" as="geometry" />
        </mxCell>
        <mxCell id="AojAtGbszMKB-Ow7NaBF-39" value="Precio extranjero" style="points=[[0.25,0,0],[0.5,0,0],[0.75,0,0],[1,0.25,0],[1,0.5,0],[1,0.75,0],[0.75,1,0],[0.5,1,0],[0.25,1,0],[0,0.75,0],[0,0.5,0],[0,0.25,0]];shape=mxgraph.bpmn.task2;whiteSpace=wrap;rectStyle=rounded;size=10;html=1;container=1;expand=0;collapsible=0;taskMarker=abstract;" vertex="1" parent="AojAtGbszMKB-Ow7NaBF-11">
          <mxGeometry x="20" y="330" width="120" height="40" as="geometry" />
        </mxCell>
        <mxCell id="AojAtGbszMKB-Ow7NaBF-40" value="" style="points=[[0.145,0.145,0],[0.5,0,0],[0.855,0.145,0],[1,0.5,0],[0.855,0.855,0],[0.5,1,0],[0.145,0.855,0],[0,0.5,0]];shape=mxgraph.bpmn.event;html=1;verticalLabelPosition=bottom;labelBackgroundColor=#ffffff;verticalAlign=top;align=center;perimeter=ellipsePerimeter;outlineConnect=0;aspect=fixed;outline=standard;symbol=message;" vertex="1" parent="AojAtGbszMKB-Ow7NaBF-11">
          <mxGeometry x="140" y="50" width="50" height="50" as="geometry" />
        </mxCell>
        <mxCell id="AojAtGbszMKB-Ow7NaBF-41" style="edgeStyle=orthogonalEdgeStyle;rounded=0;orthogonalLoop=1;jettySize=auto;html=1;entryX=0.5;entryY=0;entryDx=0;entryDy=0;entryPerimeter=0;" edge="1" parent="AojAtGbszMKB-Ow7NaBF-11" source="AojAtGbszMKB-Ow7NaBF-40" target="AojAtGbszMKB-Ow7NaBF-28">
          <mxGeometry relative="1" as="geometry" />
        </mxCell>
        <mxCell id="AojAtGbszMKB-Ow7NaBF-42" value="Enviar presupuesto" style="points=[[0.145,0.145,0],[0.5,0,0],[0.855,0.145,0],[1,0.5,0],[0.855,0.855,0],[0.5,1,0],[0.145,0.855,0],[0,0.5,0]];shape=mxgraph.bpmn.event;html=1;verticalLabelPosition=bottom;labelBackgroundColor=#ffffff;verticalAlign=top;align=center;perimeter=ellipsePerimeter;outlineConnect=0;aspect=fixed;outline=end;symbol=message;" vertex="1" parent="AojAtGbszMKB-Ow7NaBF-11">
          <mxGeometry x="150" y="475" width="50" height="50" as="geometry" />
        </mxCell>
        <mxCell id="AojAtGbszMKB-Ow7NaBF-43" style="edgeStyle=orthogonalEdgeStyle;rounded=0;orthogonalLoop=1;jettySize=auto;html=1;exitX=0.5;exitY=1;exitDx=0;exitDy=0;exitPerimeter=0;entryX=0.5;entryY=0;entryDx=0;entryDy=0;entryPerimeter=0;" edge="1" parent="AojAtGbszMKB-Ow7NaBF-11" target="AojAtGbszMKB-Ow7NaBF-42" source="AojAtGbszMKB-Ow7NaBF-32">
          <mxGeometry relative="1" as="geometry">
            <mxPoint x="175" y="405" as="sourcePoint" />
          </mxGeometry>
        </mxCell>
        <mxCell id="AojAtGbszMKB-Ow7NaBF-44" value="" style="dashed=1;dashPattern=8 4;endArrow=blockThin;endFill=1;startArrow=oval;startFill=0;endSize=6;startSize=4;html=1;rounded=0;exitX=0.145;exitY=0.855;exitDx=0;exitDy=0;exitPerimeter=0;" edge="1" parent="4ntPDwli7KKJA4_EWOXy-1" source="AojAtGbszMKB-Ow7NaBF-42" target="4ntPDwli7KKJA4_EWOXy-94">
          <mxGeometry width="160" relative="1" as="geometry">
            <mxPoint x="1230" y="555" as="sourcePoint" />
            <mxPoint x="690" y="815" as="targetPoint" />
            <Array as="points">
              <mxPoint x="1060" y="880" />
            </Array>
          </mxGeometry>
        </mxCell>
        <mxCell id="4ntPDwli7KKJA4_EWOXy-7" value="Cliente" style="swimlane;startSize=20;whiteSpace=wrap;html=1;" parent="1" vertex="1">
          <mxGeometry x="40" y="40" width="230" height="710" as="geometry" />
        </mxCell>
        <mxCell id="4ntPDwli7KKJA4_EWOXy-8" value="" style="points=[[0.145,0.145,0],[0.5,0,0],[0.855,0.145,0],[1,0.5,0],[0.855,0.855,0],[0.5,1,0],[0.145,0.855,0],[0,0.5,0]];shape=mxgraph.bpmn.event;html=1;verticalLabelPosition=bottom;labelBackgroundColor=#ffffff;verticalAlign=top;align=center;perimeter=ellipsePerimeter;outlineConnect=0;aspect=fixed;outline=standard;symbol=general;" parent="4ntPDwli7KKJA4_EWOXy-7" vertex="1">
          <mxGeometry x="85" y="40" width="50" height="50" as="geometry" />
        </mxCell>
        <mxCell id="4ntPDwli7KKJA4_EWOXy-9" value="Redactar documento" style="points=[[0.25,0,0],[0.5,0,0],[0.75,0,0],[1,0.25,0],[1,0.5,0],[1,0.75,0],[0.75,1,0],[0.5,1,0],[0.25,1,0],[0,0.75,0],[0,0.5,0],[0,0.25,0]];shape=mxgraph.bpmn.task2;whiteSpace=wrap;rectStyle=rounded;size=10;html=1;container=1;expand=0;collapsible=0;taskMarker=abstract;" parent="4ntPDwli7KKJA4_EWOXy-7" vertex="1">
          <mxGeometry x="65" y="110" width="90" height="50" as="geometry" />
        </mxCell>
        <mxCell id="4ntPDwli7KKJA4_EWOXy-10" value="Redactar guion de 3 primeros episodios" style="points=[[0.25,0,0],[0.5,0,0],[0.75,0,0],[1,0.25,0],[1,0.5,0],[1,0.75,0],[0.75,1,0],[0.5,1,0],[0.25,1,0],[0,0.75,0],[0,0.5,0],[0,0.25,0]];shape=mxgraph.bpmn.task2;whiteSpace=wrap;rectStyle=rounded;size=10;html=1;container=1;expand=0;collapsible=0;taskMarker=abstract;" parent="4ntPDwli7KKJA4_EWOXy-7" vertex="1">
          <mxGeometry x="17.5" y="260" width="85" height="60" as="geometry" />
        </mxCell>
        <mxCell id="4ntPDwli7KKJA4_EWOXy-11" value="Redactar sinopsis pelicula" style="points=[[0.25,0,0],[0.5,0,0],[0.75,0,0],[1,0.25,0],[1,0.5,0],[1,0.75,0],[0.75,1,0],[0.5,1,0],[0.25,1,0],[0,0.75,0],[0,0.5,0],[0,0.25,0]];shape=mxgraph.bpmn.task2;whiteSpace=wrap;rectStyle=rounded;size=10;html=1;container=1;expand=0;collapsible=0;taskMarker=abstract;" parent="4ntPDwli7KKJA4_EWOXy-7" vertex="1">
          <mxGeometry x="112.5" y="260" width="100" height="60" as="geometry" />
        </mxCell>
        <mxCell id="4ntPDwli7KKJA4_EWOXy-12" value="Pelicula o serie" style="points=[[0.25,0.25,0],[0.5,0,0],[0.75,0.25,0],[1,0.5,0],[0.75,0.75,0],[0.5,1,0],[0.25,0.75,0],[0,0.5,0]];shape=mxgraph.bpmn.gateway2;html=1;verticalLabelPosition=bottom;labelBackgroundColor=#ffffff;verticalAlign=top;align=center;perimeter=rhombusPerimeter;outlineConnect=0;outline=none;symbol=none;" parent="4ntPDwli7KKJA4_EWOXy-7" vertex="1">
          <mxGeometry x="85" y="180" width="50" height="50" as="geometry" />
        </mxCell>
        <mxCell id="4ntPDwli7KKJA4_EWOXy-13" value="" style="points=[[0.25,0.25,0],[0.5,0,0],[0.75,0.25,0],[1,0.5,0],[0.75,0.75,0],[0.5,1,0],[0.25,0.75,0],[0,0.5,0]];shape=mxgraph.bpmn.gateway2;html=1;verticalLabelPosition=bottom;labelBackgroundColor=#ffffff;verticalAlign=top;align=center;perimeter=rhombusPerimeter;outlineConnect=0;outline=none;symbol=none;" parent="4ntPDwli7KKJA4_EWOXy-7" vertex="1">
          <mxGeometry x="90" y="340" width="50" height="50" as="geometry" />
        </mxCell>
        <mxCell id="4ntPDwli7KKJA4_EWOXy-14" value="" style="edgeStyle=elbowEdgeStyle;fontSize=12;html=1;endArrow=blockThin;endFill=1;rounded=0;exitX=0.578;exitY=1;exitDx=0;exitDy=0;exitPerimeter=0;entryX=0.5;entryY=0;entryDx=0;entryDy=0;entryPerimeter=0;" parent="4ntPDwli7KKJA4_EWOXy-7" source="4ntPDwli7KKJA4_EWOXy-9" target="4ntPDwli7KKJA4_EWOXy-12" edge="1">
          <mxGeometry width="160" relative="1" as="geometry">
            <mxPoint x="360" y="230" as="sourcePoint" />
            <mxPoint x="520" y="230" as="targetPoint" />
            <Array as="points">
              <mxPoint x="110" y="170" />
            </Array>
          </mxGeometry>
        </mxCell>
        <mxCell id="4ntPDwli7KKJA4_EWOXy-15" value="" style="edgeStyle=elbowEdgeStyle;fontSize=12;html=1;endArrow=blockThin;endFill=1;rounded=0;exitX=0.5;exitY=1;exitDx=0;exitDy=0;exitPerimeter=0;entryX=0.5;entryY=0;entryDx=0;entryDy=0;entryPerimeter=0;" parent="4ntPDwli7KKJA4_EWOXy-7" source="4ntPDwli7KKJA4_EWOXy-8" target="4ntPDwli7KKJA4_EWOXy-9" edge="1">
          <mxGeometry width="160" relative="1" as="geometry">
            <mxPoint x="360" y="230" as="sourcePoint" />
            <mxPoint x="520" y="230" as="targetPoint" />
          </mxGeometry>
        </mxCell>
        <mxCell id="4ntPDwli7KKJA4_EWOXy-16" value="" style="edgeStyle=elbowEdgeStyle;fontSize=12;html=1;endArrow=blockThin;endFill=1;rounded=0;exitX=1;exitY=0.5;exitDx=0;exitDy=0;exitPerimeter=0;entryX=0.5;entryY=0;entryDx=0;entryDy=0;entryPerimeter=0;" parent="4ntPDwli7KKJA4_EWOXy-7" source="4ntPDwli7KKJA4_EWOXy-12" target="4ntPDwli7KKJA4_EWOXy-11" edge="1">
          <mxGeometry width="160" relative="1" as="geometry">
            <mxPoint x="360" y="230" as="sourcePoint" />
            <mxPoint x="520" y="230" as="targetPoint" />
            <Array as="points">
              <mxPoint x="163" y="230" />
            </Array>
          </mxGeometry>
        </mxCell>
        <mxCell id="4ntPDwli7KKJA4_EWOXy-38" value="Pelicula" style="edgeLabel;html=1;align=center;verticalAlign=middle;resizable=0;points=[];" parent="4ntPDwli7KKJA4_EWOXy-16" vertex="1" connectable="0">
          <mxGeometry x="-0.0898" y="-2" relative="1" as="geometry">
            <mxPoint as="offset" />
          </mxGeometry>
        </mxCell>
        <mxCell id="4ntPDwli7KKJA4_EWOXy-17" style="edgeStyle=orthogonalEdgeStyle;rounded=0;orthogonalLoop=1;jettySize=auto;html=1;exitX=0;exitY=0.5;exitDx=0;exitDy=0;exitPerimeter=0;entryX=0.5;entryY=0;entryDx=0;entryDy=0;entryPerimeter=0;" parent="4ntPDwli7KKJA4_EWOXy-7" source="4ntPDwli7KKJA4_EWOXy-12" target="4ntPDwli7KKJA4_EWOXy-10" edge="1">
          <mxGeometry relative="1" as="geometry" />
        </mxCell>
        <mxCell id="4ntPDwli7KKJA4_EWOXy-39" value="Serie" style="edgeLabel;html=1;align=center;verticalAlign=middle;resizable=0;points=[];" parent="4ntPDwli7KKJA4_EWOXy-17" vertex="1" connectable="0">
          <mxGeometry x="-0.05" y="-2" relative="1" as="geometry">
            <mxPoint as="offset" />
          </mxGeometry>
        </mxCell>
        <mxCell id="4ntPDwli7KKJA4_EWOXy-18" style="edgeStyle=orthogonalEdgeStyle;rounded=0;orthogonalLoop=1;jettySize=auto;html=1;exitX=0.5;exitY=1;exitDx=0;exitDy=0;exitPerimeter=0;entryX=0;entryY=0.5;entryDx=0;entryDy=0;entryPerimeter=0;" parent="4ntPDwli7KKJA4_EWOXy-7" source="4ntPDwli7KKJA4_EWOXy-10" target="4ntPDwli7KKJA4_EWOXy-13" edge="1">
          <mxGeometry relative="1" as="geometry" />
        </mxCell>
        <mxCell id="4ntPDwli7KKJA4_EWOXy-19" style="edgeStyle=orthogonalEdgeStyle;rounded=0;orthogonalLoop=1;jettySize=auto;html=1;exitX=0.5;exitY=1;exitDx=0;exitDy=0;exitPerimeter=0;entryX=1;entryY=0.5;entryDx=0;entryDy=0;entryPerimeter=0;" parent="4ntPDwli7KKJA4_EWOXy-7" source="4ntPDwli7KKJA4_EWOXy-11" target="4ntPDwli7KKJA4_EWOXy-13" edge="1">
          <mxGeometry relative="1" as="geometry" />
        </mxCell>
        <mxCell id="4ntPDwli7KKJA4_EWOXy-20" value="Enviar propuesta" style="points=[[0.145,0.145,0],[0.5,0,0],[0.855,0.145,0],[1,0.5,0],[0.855,0.855,0],[0.5,1,0],[0.145,0.855,0],[0,0.5,0]];shape=mxgraph.bpmn.event;html=1;verticalLabelPosition=bottom;labelBackgroundColor=#ffffff;verticalAlign=top;align=center;perimeter=ellipsePerimeter;outlineConnect=0;aspect=fixed;outline=throwing;symbol=message;" parent="4ntPDwli7KKJA4_EWOXy-7" vertex="1">
          <mxGeometry x="90" y="420" width="50" height="50" as="geometry" />
        </mxCell>
        <mxCell id="4ntPDwli7KKJA4_EWOXy-52" style="edgeStyle=orthogonalEdgeStyle;rounded=0;orthogonalLoop=1;jettySize=auto;html=1;exitX=0.5;exitY=1;exitDx=0;exitDy=0;exitPerimeter=0;entryX=0.5;entryY=0;entryDx=0;entryDy=0;entryPerimeter=0;" parent="4ntPDwli7KKJA4_EWOXy-7" source="4ntPDwli7KKJA4_EWOXy-13" target="4ntPDwli7KKJA4_EWOXy-20" edge="1">
          <mxGeometry relative="1" as="geometry" />
        </mxCell>
        <mxCell id="4ntPDwli7KKJA4_EWOXy-54" value="Recibir respuesta de propuesta" style="points=[[0.145,0.145,0],[0.5,0,0],[0.855,0.145,0],[1,0.5,0],[0.855,0.855,0],[0.5,1,0],[0.145,0.855,0],[0,0.5,0]];shape=mxgraph.bpmn.event;html=1;verticalLabelPosition=bottom;labelBackgroundColor=#ffffff;verticalAlign=top;align=center;perimeter=ellipsePerimeter;outlineConnect=0;aspect=fixed;outline=catching;symbol=message;" parent="4ntPDwli7KKJA4_EWOXy-7" vertex="1">
          <mxGeometry x="90" y="510" width="50" height="50" as="geometry" />
        </mxCell>
        <mxCell id="4ntPDwli7KKJA4_EWOXy-55" style="edgeStyle=orthogonalEdgeStyle;rounded=0;orthogonalLoop=1;jettySize=auto;html=1;exitX=0.5;exitY=1;exitDx=0;exitDy=0;exitPerimeter=0;entryX=0.5;entryY=0;entryDx=0;entryDy=0;entryPerimeter=0;" parent="4ntPDwli7KKJA4_EWOXy-7" source="4ntPDwli7KKJA4_EWOXy-20" target="4ntPDwli7KKJA4_EWOXy-54" edge="1">
          <mxGeometry relative="1" as="geometry" />
        </mxCell>
        <mxCell id="4ntPDwli7KKJA4_EWOXy-56" value="" style="points=[[0.145,0.145,0],[0.5,0,0],[0.855,0.145,0],[1,0.5,0],[0.855,0.855,0],[0.5,1,0],[0.145,0.855,0],[0,0.5,0]];shape=mxgraph.bpmn.event;html=1;verticalLabelPosition=bottom;labelBackgroundColor=#ffffff;verticalAlign=top;align=center;perimeter=ellipsePerimeter;outlineConnect=0;aspect=fixed;outline=end;symbol=terminate2;" parent="4ntPDwli7KKJA4_EWOXy-7" vertex="1">
          <mxGeometry x="90" y="620" width="50" height="50" as="geometry" />
        </mxCell>
        <mxCell id="4ntPDwli7KKJA4_EWOXy-57" style="edgeStyle=orthogonalEdgeStyle;rounded=0;orthogonalLoop=1;jettySize=auto;html=1;exitX=0.5;exitY=1;exitDx=0;exitDy=0;exitPerimeter=0;entryX=0.5;entryY=0;entryDx=0;entryDy=0;entryPerimeter=0;" parent="4ntPDwli7KKJA4_EWOXy-7" source="4ntPDwli7KKJA4_EWOXy-54" target="4ntPDwli7KKJA4_EWOXy-56" edge="1">
          <mxGeometry relative="1" as="geometry" />
        </mxCell>
        <mxCell id="4ntPDwli7KKJA4_EWOXy-23" value="" style="dashed=1;dashPattern=8 4;endArrow=blockThin;endFill=1;startArrow=oval;startFill=0;endSize=6;startSize=4;html=1;rounded=0;exitX=1;exitY=0.5;exitDx=0;exitDy=0;exitPerimeter=0;entryX=0;entryY=0.5;entryDx=0;entryDy=0;entryPerimeter=0;" parent="1" source="4ntPDwli7KKJA4_EWOXy-20" target="4ntPDwli7KKJA4_EWOXy-21" edge="1">
          <mxGeometry width="160" relative="1" as="geometry">
            <mxPoint x="400" y="270" as="sourcePoint" />
            <mxPoint x="560" y="270" as="targetPoint" />
          </mxGeometry>
        </mxCell>
        <mxCell id="4ntPDwli7KKJA4_EWOXy-145" value="" style="dashed=1;dashPattern=8 4;endArrow=blockThin;endFill=1;startArrow=oval;startFill=0;endSize=6;startSize=4;html=1;rounded=0;entryX=1;entryY=0.5;entryDx=0;entryDy=0;entryPerimeter=0;exitX=0;exitY=0.5;exitDx=0;exitDy=0;exitPerimeter=0;" parent="1" source="AojAtGbszMKB-Ow7NaBF-6" target="4ntPDwli7KKJA4_EWOXy-54" edge="1">
          <mxGeometry width="160" relative="1" as="geometry">
            <mxPoint x="270" y="1230" as="sourcePoint" />
            <mxPoint x="1060" y="760" as="targetPoint" />
          </mxGeometry>
        </mxCell>
      </root>
    </mxGraphModel>
  </diagram>
</mxfile>
